<?xml version="1.0" standalone="no"?>
<!DOCTYPE svg PUBLIC "-//W3C//DTD SVG 20010904//EN"
 "http://www.w3.org/TR/2001/REC-SVG-20010904/DTD/svg10.dtd">
<svg version="1.0" xmlns="http://www.w3.org/2000/svg"
 width="700.000000pt" height="700.000000pt" viewBox="0 0 700.000000 700.000000"
 preserveAspectRatio="xMidYMid meet">
<metadata>
Created by potrace 1.14, written by Peter Selinger 2001-2017
</metadata>
<g transform="translate(0.000000,700.000000) scale(0.100000,-0.100000)"
fill="#000000" stroke="none">
<path d="M3140 6774 c-1533 -167 -2753 -1393 -2915 -2928 -30 -285 -15 -677
36 -945 129 -680 454 -1285 945 -1761 519 -502 1138 -803 1865 -907 177 -25
681 -25 858 0 759 109 1410 437 1931 973 500 516 802 1137 907 1865 25 177 25
681 0 858 -105 733 -410 1356 -916 1875 -538 550 -1241 891 -2005 971 -178 18
-531 18 -706 -1z m931 -912 c28 -31 29 -35 29 -140 0 -118 -8 -140 -57 -161
-21 -8 -173 -11 -562 -9 l-533 3 -24 28 c-22 26 -24 36 -24 140 1 190 -43 178
613 175 l529 -3 29 -33z m-241 -612 c229 -42 457 -136 656 -271 140 -95 140
-95 269 31 92 91 104 100 139 100 35 0 47 -8 122 -84 76 -75 84 -87 84 -122 0
-35 -9 -47 -100 -139 -126 -129 -126 -129 -30 -263 88 -123 189 -318 235 -454
68 -203 98 -494 76 -718 -24 -235 -73 -406 -175 -615 -148 -301 -346 -527
-621 -711 -841 -560 -1974 -309 -2508 556 -362 588 -351 1324 29 1907 288 444
773 743 1299 803 127 14 393 4 525 -20z"/>
<path d="M3310 4920 c-336 -47 -581 -170 -825 -415 -221 -221 -340 -437 -394
-717 -80 -413 7 -825 240 -1138 232 -314 547 -511 919 -576 129 -23 372 -22
505 1 364 63 680 260 908 567 196 264 293 591 273 927 -23 393 -162 692 -447
966 -202 193 -419 309 -687 365 -111 24 -386 35 -492 20z m321 -440 c47 -26
49 -45 49 -435 l0 -365 393 0 c292 0 396 -3 405 -12 8 -8 12 -58 12 -159 0
-141 -1 -149 -22 -163 -20 -14 -90 -16 -561 -16 -352 0 -545 4 -558 10 -18 10
-19 27 -19 550 l0 538 26 31 26 31 115 0 c63 0 123 -5 134 -10z"/>
</g>
</svg>
